<svg width="141" height="24" viewBox="0 0 141 24" fill="none" xmlns="http://www.w3.org/2000/svg">
<path d="M26.7044 10.4131V-0.000488281H0L26.7044 10.4131Z" fill="url(#paint0_linear_2126_3468)"/>
<path d="M0 -0.000488281L26.7044 5.30489V-0.000488281H0Z" fill="url(#paint1_linear_2126_3468)"/>
<path d="M8.06641 7.00049V14.2781H26.7043L8.06641 7.00049Z" fill="url(#paint2_linear_2126_3468)"/>
<path d="M26.7043 14.2796L8.06641 10.5718V14.2796H26.7043Z" fill="url(#paint3_linear_2126_3468)"/>
<path d="M26.7052 23.8054V17.6914H16.627L26.7052 23.8054Z" fill="url(#paint4_linear_2126_3468)"/>
<path d="M16.627 17.6914L26.7052 20.6695V17.6914H16.627Z" fill="url(#paint5_linear_2126_3468)"/>
<path d="M38.9838 19.2384C38.5499 19.4948 38.0568 19.692 37.5243 19.8301C36.9918 19.9682 36.479 20.0471 35.9662 20.0471C34.8618 20.0471 33.9348 19.692 33.2445 19.0018C32.5345 18.3115 32.1992 17.3451 32.1992 16.1223V5.33398H35.5718V8.58822H38.8063V10.9352H35.5718V15.5503C35.5718 16.1025 35.6704 16.497 35.8873 16.7731C36.1043 17.0492 36.4001 17.1873 36.7749 17.1873C37.2482 17.1873 37.7413 17.0492 38.2935 16.7534L38.9838 19.2384Z" fill="#0A2540"/>
<path d="M49.5957 8.72749C50.5621 9.22055 51.2919 9.93057 51.8244 10.8378C52.3569 11.745 52.6133 12.8101 52.6133 14.0131C52.6133 15.1965 52.3569 16.2615 51.8244 17.1688C51.2919 18.076 50.5424 18.786 49.5957 19.2988C48.6293 19.8116 47.5248 20.0483 46.2823 20.0483C45.0201 20.0483 43.9156 19.7919 42.9492 19.2791C41.9828 18.7663 41.2531 18.0563 40.7205 17.149C40.188 16.2418 39.9316 15.1768 39.9316 13.9934C39.9316 12.7903 40.188 11.745 40.7205 10.8378C41.2531 9.93057 42.0025 9.22055 42.9492 8.72749C43.9156 8.23442 45.0201 7.97803 46.2823 7.97803C47.5446 7.97803 48.649 8.2147 49.5957 8.72749ZM44.1523 11.6859C43.6 12.2776 43.3239 13.0665 43.3239 14.0329C43.3239 14.9993 43.6 15.7882 44.1523 16.3799C44.7045 16.9913 45.4145 17.2871 46.302 17.2871C47.1698 17.2871 47.8799 16.9913 48.4321 16.3799C48.9843 15.7882 49.2604 14.9993 49.2604 14.0329C49.2604 13.0665 48.9843 12.2776 48.4321 11.6859C47.8799 11.0942 47.1698 10.7786 46.302 10.7786C45.4145 10.7786 44.7045 11.0745 44.1523 11.6859Z" fill="#0A2540"/>
<path d="M66.1029 8.09638L66.0832 19.9299H62.7107V17.8394C61.902 19.3185 60.5806 20.068 58.7464 20.0483C57.4447 20.0483 56.3994 19.6341 55.6302 18.8255C54.8611 18.0169 54.4863 16.9124 54.4863 15.5121V8.07666H57.8786V14.5457C57.8786 15.2951 58.0758 15.8868 58.4703 16.301C58.8647 16.7349 59.417 16.9321 60.0876 16.9321C60.8962 16.9124 61.5273 16.6363 62.0006 16.084C62.474 15.5318 62.7107 14.8021 62.7107 13.9343V8.07666L66.1029 8.09638Z" fill="#0A2540"/>
<path d="M74.3668 8.56971C75.0176 8.19498 75.7868 7.99775 76.6743 7.97803V11.1731C76.556 11.1534 76.3785 11.1534 76.1418 11.1534C75.0965 11.1534 74.2682 11.4295 73.6765 12.0014C73.0651 12.5734 72.7692 13.3229 72.7692 14.2498V19.9497H69.377L69.3967 8.11609H72.789V10.2461C73.1834 9.49667 73.7159 8.94444 74.3668 8.56971Z" fill="#0A2540"/>
<path d="M89.158 9.22055C89.9469 10.0489 90.3414 11.1336 90.3217 12.5142V19.9497H86.9294V13.5004C86.9294 12.7509 86.7124 12.1592 86.2982 11.7253C85.8841 11.2914 85.3121 11.0745 84.6021 11.0745C83.7737 11.0942 83.1032 11.3703 82.6298 11.9423C82.1368 12.5142 81.9001 13.2242 81.9001 14.1118V19.9299H78.5078L78.5275 8.09636H81.9198V10.1672C82.7482 8.72748 84.109 7.99775 86.0024 7.97803C87.3238 7.97803 88.3691 8.3922 89.158 9.22055Z" fill="#0A2540"/>
<path d="M100.105 19.9502V18.5697C99.7102 19.0627 99.1974 19.4572 98.5663 19.7136C97.9352 19.97 97.2055 20.108 96.3968 20.108C95.1543 20.108 94.1682 19.7727 93.4384 19.0825C92.7087 18.3922 92.334 17.5046 92.334 16.4199C92.334 15.3154 92.7284 14.4476 93.5173 13.8165C94.3062 13.1854 95.4107 12.8698 96.8505 12.8698H100.105V12.6529C100.105 12.0218 99.8877 11.5287 99.4736 11.1934C99.0594 10.8581 98.448 10.6806 97.6394 10.6806C96.5349 10.6806 95.3713 11.0159 94.1287 11.7062L93.0834 9.37893C94.0301 8.90558 94.8979 8.5703 95.7263 8.35335C96.5546 8.1364 97.4421 8.01807 98.4283 8.01807C100.006 8.01807 101.229 8.3928 102.116 9.14225C102.984 9.89171 103.438 10.937 103.438 12.2584L103.458 19.97L100.105 19.9502ZM99.158 17.1891C99.6708 16.8538 99.9864 16.4199 100.085 15.9071V14.8421H97.4224C96.7716 14.8421 96.2785 14.9407 95.9629 15.1577C95.6474 15.3746 95.4896 15.7099 95.4896 16.1832C95.4896 16.6368 95.6474 16.9919 95.9827 17.268C96.318 17.5441 96.7716 17.6821 97.3435 17.6821C98.0338 17.6821 98.6452 17.5244 99.158 17.1891Z" fill="#0A2540"/>
<path d="M112.884 19.2985C112.45 19.5549 111.957 19.7521 111.425 19.8902C110.892 20.0282 110.379 20.1071 109.867 20.1071C108.762 20.1071 107.835 19.7521 107.145 19.0618C106.435 18.3715 106.1 17.4051 106.1 16.1823V5.39404H109.472V8.64827H112.707V10.9953H109.472V15.6104C109.472 16.1626 109.571 16.557 109.788 16.8332C110.005 17.1093 110.301 17.2473 110.675 17.2473C111.149 17.2473 111.642 17.1093 112.194 16.8134L112.884 19.2985Z" fill="#0A2540"/>
<path d="M124.265 9.69315C125.251 10.7976 125.744 12.3163 125.744 14.2885C125.744 14.6435 125.744 14.9196 125.725 15.0971H117.244C117.441 15.8466 117.796 16.4186 118.349 16.8525C118.881 17.2666 119.552 17.4836 120.301 17.4836C120.853 17.4836 121.386 17.385 121.899 17.168C122.411 16.9511 122.865 16.6355 123.279 16.2411L125.054 18.0358C124.443 18.7064 123.733 19.2192 122.865 19.5742C122.017 19.9292 121.051 20.1067 120.005 20.1067C118.763 20.1067 117.678 19.8503 116.731 19.3572C115.804 18.8642 115.075 18.1542 114.581 17.2469C114.069 16.3397 113.832 15.2944 113.832 14.111C113.832 12.9079 114.088 11.8429 114.601 10.9357C115.114 10.0284 115.824 9.31842 116.751 8.80563C117.678 8.29285 118.723 8.05617 119.926 8.05617C121.839 8.03645 123.279 8.58869 124.265 9.69315ZM122.569 13.0854C122.549 12.3163 122.293 11.6851 121.82 11.2118C121.346 10.7384 120.735 10.5018 119.946 10.5018C119.216 10.5018 118.605 10.7385 118.112 11.1921C117.619 11.6457 117.303 12.2768 117.185 13.0657L122.569 13.0854Z" fill="#0A2540"/>
<path d="M139.649 3.67822L139.629 19.9888H136.256V18.2532C135.822 18.8646 135.31 19.338 134.679 19.6535C134.047 19.9691 133.337 20.1269 132.529 20.1269C131.424 20.1269 130.438 19.8705 129.59 19.3577C128.742 18.8449 128.091 18.1349 127.638 17.2079C127.184 16.281 126.947 15.216 126.947 14.0129C126.947 12.8295 127.184 11.7842 127.638 10.877C128.091 9.96974 128.742 9.25972 129.57 8.76666C130.399 8.27359 131.365 8.0172 132.45 8.0172C134.126 8.0172 135.389 8.64832 136.276 9.89085V3.67822H139.649ZM135.448 16.4782C136 15.8668 136.276 15.0779 136.276 14.1115C136.276 13.1451 136 12.3562 135.448 11.7448C134.895 11.1334 134.185 10.8375 133.318 10.8375C132.43 10.8375 131.72 11.1334 131.168 11.7448C130.616 12.3562 130.34 13.1451 130.32 14.1115C130.34 15.0779 130.616 15.8668 131.168 16.4782C131.72 17.0896 132.43 17.3854 133.318 17.3854C134.205 17.3854 134.895 17.0896 135.448 16.4782Z" fill="#0A2540"/>
<defs>
<linearGradient id="paint0_linear_2126_3468" x1="18.1877" y1="-2.52141" x2="-8.15681" y2="39.6016" gradientUnits="userSpaceOnUse">
<stop stop-color="#FF5733"/>
<stop offset="1" stop-color="#FFC300"/>
</linearGradient>
<linearGradient id="paint1_linear_2126_3468" x1="6.40222" y1="-2.39789" x2="27.209" y2="4.76733" gradientUnits="userSpaceOnUse">
<stop stop-color="#FF5733"/>
<stop offset="1" stop-color="#FFC300"/>
</linearGradient>
<linearGradient id="paint2_linear_2126_3468" x1="14.0176" y1="16.0338" x2="32.4053" y2="-13.3668" gradientUnits="userSpaceOnUse">
<stop stop-color="#FF5733"/>
<stop offset="1" stop-color="#FFC300"/>
</linearGradient>
<linearGradient id="paint3_linear_2126_3468" x1="22.2435" y1="15.949" x2="7.72104" y2="10.9479" gradientUnits="userSpaceOnUse">
<stop stop-color="#FF5733"/>
<stop offset="1" stop-color="#FFC300"/>
</linearGradient>
<linearGradient id="paint4_linear_2126_3468" x1="17.7034" y1="30.1375" x2="28.9482" y2="3.53931" gradientUnits="userSpaceOnUse">
<stop stop-color="#FF5733"/>
<stop offset="1" stop-color="#FFC300"/>
</linearGradient>
<linearGradient id="paint5_linear_2126_3468" x1="15.9606" y1="16.4071" x2="25.1528" y2="18.7826" gradientUnits="userSpaceOnUse">
<stop stop-color="#FF5733"/>
<stop offset="1" stop-color="#FFC300"/>
</linearGradient>
</defs>
</svg>
